<mxfile host="app.diagrams.net" modified="2023-12-22T23:23:30.232Z" agent="Mozilla/5.0 (Windows NT 10.0; Win64; x64) AppleWebKit/537.36 (KHTML, like Gecko) Chrome/118.0.5993.771 YaBrowser/23.11.2.771 Yowser/2.5 Safari/537.36" etag="vDZhN9VnCNA985Sr4lH6" version="22.1.11" type="device">
  <diagram name="Страница — 1" id="fnxwgbmKlDpWqAIu6fdl">
    <mxGraphModel dx="906" dy="1840" grid="1" gridSize="10" guides="1" tooltips="1" connect="1" arrows="1" fold="1" page="1" pageScale="1" pageWidth="827" pageHeight="1169" math="0" shadow="0">
      <root>
        <mxCell id="0" />
        <mxCell id="1" parent="0" />
        <mxCell id="LsFVYPWa_w1lNekHBxI4-16" style="edgeStyle=orthogonalEdgeStyle;rounded=0;orthogonalLoop=1;jettySize=auto;html=1;" parent="1" target="LsFVYPWa_w1lNekHBxI4-2" edge="1">
          <mxGeometry relative="1" as="geometry">
            <mxPoint x="240" y="-930" as="sourcePoint" />
          </mxGeometry>
        </mxCell>
        <mxCell id="LsFVYPWa_w1lNekHBxI4-1" value="Режим &quot;Архитектора (Конфигуратора)&quot;" style="swimlane;whiteSpace=wrap;html=1;startSize=30;" parent="1" vertex="1">
          <mxGeometry x="40" y="-1140" width="200" height="350" as="geometry" />
        </mxCell>
        <mxCell id="LsFVYPWa_w1lNekHBxI4-10" value="Метаданные" style="swimlane;fontStyle=0;childLayout=stackLayout;horizontal=1;startSize=26;horizontalStack=0;resizeParent=1;resizeParentMax=0;resizeLast=0;collapsible=1;marginBottom=0;align=center;fontSize=14;" parent="LsFVYPWa_w1lNekHBxI4-1" vertex="1">
          <mxGeometry x="10" y="140" width="180" height="206" as="geometry" />
        </mxCell>
        <mxCell id="LsFVYPWa_w1lNekHBxI4-11" value="Процессы" style="text;strokeColor=none;fillColor=none;spacingLeft=4;spacingRight=4;overflow=hidden;rotatable=0;points=[[0,0.5],[1,0.5]];portConstraint=eastwest;fontSize=12;whiteSpace=wrap;html=1;" parent="LsFVYPWa_w1lNekHBxI4-10" vertex="1">
          <mxGeometry y="26" width="180" height="30" as="geometry" />
        </mxCell>
        <mxCell id="LsFVYPWa_w1lNekHBxI4-12" value="Субъекты" style="text;strokeColor=none;fillColor=none;spacingLeft=4;spacingRight=4;overflow=hidden;rotatable=0;points=[[0,0.5],[1,0.5]];portConstraint=eastwest;fontSize=12;whiteSpace=wrap;html=1;" parent="LsFVYPWa_w1lNekHBxI4-10" vertex="1">
          <mxGeometry y="56" width="180" height="30" as="geometry" />
        </mxCell>
        <mxCell id="LsFVYPWa_w1lNekHBxI4-13" value="... Ресурсы" style="text;strokeColor=none;fillColor=none;spacingLeft=4;spacingRight=4;overflow=hidden;rotatable=0;points=[[0,0.5],[1,0.5]];portConstraint=eastwest;fontSize=12;whiteSpace=wrap;html=1;" parent="LsFVYPWa_w1lNekHBxI4-10" vertex="1">
          <mxGeometry y="86" width="180" height="30" as="geometry" />
        </mxCell>
        <mxCell id="LsFVYPWa_w1lNekHBxI4-20" value="&lt;p style=&quot;margin:0px;margin-top:4px;text-align:center;&quot;&gt;&lt;br&gt;&lt;b&gt;Interface&lt;/b&gt;&lt;/p&gt;&lt;hr size=&quot;1&quot;&gt;&lt;p style=&quot;margin:0px;margin-left:4px;&quot;&gt;&lt;br&gt;&lt;/p&gt;&lt;hr size=&quot;1&quot;&gt;&lt;p style=&quot;margin:0px;margin-left:4px;&quot;&gt;&lt;br&gt;&lt;/p&gt;" style="verticalAlign=top;align=left;overflow=fill;fontSize=12;fontFamily=Helvetica;html=1;whiteSpace=wrap;" parent="LsFVYPWa_w1lNekHBxI4-10" vertex="1">
          <mxGeometry y="116" width="180" height="90" as="geometry" />
        </mxCell>
        <mxCell id="LsFVYPWa_w1lNekHBxI4-17" value="Конфигуратор" style="html=1;dropTarget=0;whiteSpace=wrap;" parent="LsFVYPWa_w1lNekHBxI4-1" vertex="1">
          <mxGeometry x="10" y="40" width="180" height="90" as="geometry" />
        </mxCell>
        <mxCell id="LsFVYPWa_w1lNekHBxI4-18" value="" style="shape=module;jettyWidth=8;jettyHeight=4;" parent="LsFVYPWa_w1lNekHBxI4-17" vertex="1">
          <mxGeometry x="1" width="20" height="20" relative="1" as="geometry">
            <mxPoint x="-27" y="7" as="offset" />
          </mxGeometry>
        </mxCell>
        <mxCell id="Kvv4mYQ4Rfjg--dn_FOe-3" style="edgeStyle=orthogonalEdgeStyle;rounded=0;orthogonalLoop=1;jettySize=auto;html=1;" edge="1" parent="1" source="LsFVYPWa_w1lNekHBxI4-2">
          <mxGeometry relative="1" as="geometry">
            <mxPoint x="560" y="-1000" as="targetPoint" />
          </mxGeometry>
        </mxCell>
        <mxCell id="Kvv4mYQ4Rfjg--dn_FOe-4" style="edgeStyle=orthogonalEdgeStyle;rounded=0;orthogonalLoop=1;jettySize=auto;html=1;" edge="1" parent="1" source="LsFVYPWa_w1lNekHBxI4-2">
          <mxGeometry relative="1" as="geometry">
            <mxPoint x="240" y="-980" as="targetPoint" />
          </mxGeometry>
        </mxCell>
        <mxCell id="LsFVYPWa_w1lNekHBxI4-2" value="" style="swimlane;whiteSpace=wrap;html=1;" parent="1" vertex="1">
          <mxGeometry x="300" y="-1090" width="200" height="290" as="geometry" />
        </mxCell>
        <mxCell id="LsFVYPWa_w1lNekHBxI4-22" style="edgeStyle=orthogonalEdgeStyle;rounded=0;orthogonalLoop=1;jettySize=auto;html=1;entryX=1;entryY=0.5;entryDx=0;entryDy=0;" parent="1" source="LsFVYPWa_w1lNekHBxI4-3" target="LsFVYPWa_w1lNekHBxI4-2" edge="1">
          <mxGeometry relative="1" as="geometry" />
        </mxCell>
        <mxCell id="LsFVYPWa_w1lNekHBxI4-3" value="Режим &quot;Моделирования&quot;" style="swimlane;whiteSpace=wrap;html=1;startSize=30;" parent="1" vertex="1">
          <mxGeometry x="560" y="-1140" width="200" height="350" as="geometry" />
        </mxCell>
        <mxCell id="LsFVYPWa_w1lNekHBxI4-4" value="Клиент" style="html=1;dropTarget=0;whiteSpace=wrap;" parent="LsFVYPWa_w1lNekHBxI4-3" vertex="1">
          <mxGeometry x="10" y="40" width="180" height="90" as="geometry" />
        </mxCell>
        <mxCell id="LsFVYPWa_w1lNekHBxI4-5" value="" style="shape=module;jettyWidth=8;jettyHeight=4;" parent="LsFVYPWa_w1lNekHBxI4-4" vertex="1">
          <mxGeometry x="1" width="20" height="20" relative="1" as="geometry">
            <mxPoint x="-27" y="7" as="offset" />
          </mxGeometry>
        </mxCell>
        <mxCell id="LsFVYPWa_w1lNekHBxI4-19" value="&lt;p style=&quot;margin:0px;margin-top:4px;text-align:center;&quot;&gt;&lt;br&gt;&lt;b&gt;Interface&lt;/b&gt;&lt;/p&gt;&lt;hr size=&quot;1&quot;&gt;&lt;p style=&quot;margin:0px;margin-left:4px;&quot;&gt;&lt;br&gt;&lt;/p&gt;&lt;hr size=&quot;1&quot;&gt;&lt;p style=&quot;margin:0px;margin-left:4px;&quot;&gt;&lt;br&gt;&lt;/p&gt;" style="verticalAlign=top;align=left;overflow=fill;fontSize=12;fontFamily=Helvetica;html=1;whiteSpace=wrap;" parent="LsFVYPWa_w1lNekHBxI4-3" vertex="1">
          <mxGeometry x="5" y="153" width="190" height="90" as="geometry" />
        </mxCell>
        <mxCell id="Kvv4mYQ4Rfjg--dn_FOe-7" style="edgeStyle=orthogonalEdgeStyle;rounded=0;orthogonalLoop=1;jettySize=auto;html=1;entryX=0.25;entryY=1;entryDx=0;entryDy=0;" edge="1" parent="1" source="LsFVYPWa_w1lNekHBxI4-8" target="LsFVYPWa_w1lNekHBxI4-2">
          <mxGeometry relative="1" as="geometry" />
        </mxCell>
        <mxCell id="LsFVYPWa_w1lNekHBxI4-8" value="БД" style="strokeWidth=2;html=1;shape=mxgraph.flowchart.database;whiteSpace=wrap;" parent="1" vertex="1">
          <mxGeometry x="335" y="-714" width="130" height="130" as="geometry" />
        </mxCell>
        <mxCell id="LsFVYPWa_w1lNekHBxI4-6" value="Сервер" style="html=1;dropTarget=0;whiteSpace=wrap;" parent="1" vertex="1">
          <mxGeometry x="310" y="-1034" width="180" height="90" as="geometry" />
        </mxCell>
        <mxCell id="LsFVYPWa_w1lNekHBxI4-7" value="" style="shape=module;jettyWidth=8;jettyHeight=4;" parent="LsFVYPWa_w1lNekHBxI4-6" vertex="1">
          <mxGeometry x="1" width="20" height="20" relative="1" as="geometry">
            <mxPoint x="-27" y="7" as="offset" />
          </mxGeometry>
        </mxCell>
        <mxCell id="Kvv4mYQ4Rfjg--dn_FOe-6" style="edgeStyle=orthogonalEdgeStyle;rounded=0;orthogonalLoop=1;jettySize=auto;html=1;entryX=0.5;entryY=0;entryDx=0;entryDy=0;entryPerimeter=0;" edge="1" parent="1" source="LsFVYPWa_w1lNekHBxI4-2" target="LsFVYPWa_w1lNekHBxI4-8">
          <mxGeometry relative="1" as="geometry" />
        </mxCell>
      </root>
    </mxGraphModel>
  </diagram>
</mxfile>
